<svg viewBox="0 0 16 17" fill="none" xmlns="http://www.w3.org/2000/svg">
<path d="M7.0626 15.7062L0.282504 8.92613C0.179775 8.8234 0.106838 8.71211 0.0636916 8.59226C0.0212304 8.47241 0 8.344 0 8.20703C0 8.07006 0.0212304 7.94165 0.0636916 7.8218C0.106838 7.70195 0.179775 7.59066 0.282504 7.48793L7.0626 0.707832C7.25094 0.519496 7.48619 0.420876 7.76835 0.411973C8.05119 0.403755 8.29534 0.502374 8.5008 0.707832C8.70626 0.896168 8.81344 1.13142 8.82234 1.41358C8.83056 1.69642 8.73194 1.94058 8.52648 2.14603L3.49278 7.17974H14.9727C15.2638 7.17974 15.5079 7.27802 15.7052 7.47457C15.9017 7.67181 16 7.91596 16 8.20703C16 8.49809 15.9017 8.7419 15.7052 8.93846C15.5079 9.1357 15.2638 9.23431 14.9727 9.23431H3.49278L8.52648 14.268C8.71482 14.4564 8.81344 14.6961 8.82234 14.9871C8.83056 15.2782 8.73194 15.5179 8.52648 15.7062C8.33815 15.9117 8.09845 16.0144 7.80738 16.0144C7.51632 16.0144 7.26806 15.9117 7.0626 15.7062Z" fill="#1C1B1F"/>
</svg>
