<svg viewBox="0 0 32 32" fill="currentColor" xmlns="http://www.w3.org/2000/svg">
<path d="M16 15.9668C14.5333 15.9668 13.3333 15.5001 12.4 14.5668C11.4667 13.6335 11 12.4335 11 10.9668C11 9.50013 11.4667 8.30013 12.4 7.3668C13.3333 6.43346 14.5333 5.9668 16 5.9668C17.4667 5.9668 18.6667 6.43346 19.6 7.3668C20.5333 8.30013 21 9.50013 21 10.9668C21 12.4335 20.5333 13.6335 19.6 14.5668C18.6667 15.5001 17.4667 15.9668 16 15.9668ZM7.33334 26.6668C6.77779 26.6668 6.30557 26.4724 5.91668 26.0835C5.52779 25.6946 5.33334 25.2224 5.33334 24.6668V23.5335C5.33334 22.689 5.54445 21.9668 5.96668 21.3668C6.3889 20.7668 6.93334 20.3112 7.60001 20.0001C9.0889 19.3335 10.5167 18.8335 11.8833 18.5001C13.25 18.1668 14.6222 18.0001 16 18.0001C17.3778 18.0001 18.7445 18.1724 20.1 18.5168C21.4556 18.8612 22.8778 19.3557 24.3667 20.0001C25.0556 20.3112 25.6111 20.7668 26.0333 21.3668C26.4556 21.9668 26.6667 22.689 26.6667 23.5335V24.6668C26.6667 25.2224 26.4722 25.6946 26.0833 26.0835C25.6945 26.4724 25.2222 26.6668 24.6667 26.6668H7.33334ZM7.33334 24.6668H24.6667V23.5335C24.6667 23.1779 24.5611 22.839 24.35 22.5168C24.1389 22.1946 23.8778 21.9557 23.5667 21.8001C22.1445 21.1112 20.8445 20.639 19.6667 20.3835C18.4889 20.1279 17.2667 20.0001 16 20.0001C14.7333 20.0001 13.5 20.1279 12.3 20.3835C11.1 20.639 9.80001 21.1112 8.40001 21.8001C8.0889 21.9557 7.83334 22.1946 7.63334 22.5168C7.43334 22.839 7.33334 23.1779 7.33334 23.5335V24.6668ZM16 13.9668C16.8667 13.9668 17.5833 13.6835 18.15 13.1168C18.7167 12.5501 19 11.8335 19 10.9668C19 10.1001 18.7167 9.38346 18.15 8.8168C17.5833 8.25013 16.8667 7.9668 16 7.9668C15.1333 7.9668 14.4167 8.25013 13.85 8.8168C13.2833 9.38346 13 10.1001 13 10.9668C13 11.8335 13.2833 12.5501 13.85 13.1168C14.4167 13.6835 15.1333 13.9668 16 13.9668Z" fill="currentColor"/>
</svg>
